<svg width="40" height="40" viewBox="20 10 40 40" fill="none" xmlns="http://www.w3.org/2000/svg">
<path d="M20 23.3333C20 17.0479 20 13.9052 21.9526 11.9526C23.9052 10 27.0479 10 33.3333 10H46.6667C52.9521 10 56.0948 10 58.0474 11.9526C60 13.9052 60 17.0479 60 23.3333V36.6667C60 42.9521 60 46.0948 58.0474 48.0474C56.0948 50 52.9521 50 46.6667 50H33.3333C27.0479 50 23.9052 50 21.9526 48.0474C20 46.0948 20 42.9521 20 36.6667V23.3333Z" fill="#351877"/>
<g filter="url(#filter0_d)">
<path fill-rule="evenodd" clip-rule="evenodd" d="M46.6667 10.4167H33.3333C30.1789 10.4167 27.8549 10.4176 26.0737 10.657C24.3045 10.8949 23.1332 11.3613 22.2472 12.2472C21.3613 13.1332 20.8949 14.3045 20.657 16.0737C20.4176 17.8549 20.4167 20.1789 20.4167 23.3333V36.6667C20.4167 39.8211 20.4176 42.1451 20.657 43.9263C20.8949 45.6955 21.3613 46.8668 22.2472 47.7528C23.1332 48.6387 24.3045 49.1051 26.0737 49.343C27.8549 49.5824 30.1789 49.5833 33.3333 49.5833H46.6667C49.8211 49.5833 52.1451 49.5824 53.9263 49.343C55.6955 49.1051 56.8668 48.6387 57.7528 47.7528C58.6387 46.8668 59.1051 45.6955 59.343 43.9263C59.5824 42.1451 59.5833 39.8211 59.5833 36.6667V23.3333C59.5833 20.1789 59.5824 17.8549 59.343 16.0737C59.1051 14.3045 58.6387 13.1332 57.7528 12.2472C56.8668 11.3613 55.6955 10.8949 53.9263 10.657C52.1451 10.4176 49.8211 10.4167 46.6667 10.4167ZM21.9526 11.9526C20 13.9052 20 17.0479 20 23.3333V36.6667C20 42.9521 20 46.0948 21.9526 48.0474C23.9052 50 27.0479 50 33.3333 50H46.6667C52.9521 50 56.0948 50 58.0474 48.0474C60 46.0948 60 42.9521 60 36.6667V23.3333C60 17.0479 60 13.9052 58.0474 11.9526C56.0948 10 52.9521 10 46.6667 10H33.3333C27.0479 10 23.9052 10 21.9526 11.9526Z" fill="#351877"/>
</g>
<path fill-rule="evenodd" clip-rule="evenodd" d="M48.7534 30.9347C49.0822 30.7415 49.0822 30.2585 48.7534 30.0653L31.7397 20.068C31.411 19.8748 31 20.1163 31 20.5027V40.4973C31 40.8837 31.411 41.1252 31.7397 40.932L48.7534 30.9347Z" fill="url(#paint0_linear)"/>
<path fill-rule="evenodd" clip-rule="evenodd" d="M42.1905 24.2958C42.0644 24.2199 42.0644 24.0301 42.1905 23.9542L48.7163 20.0267C48.8424 19.9508 49 20.0457 49 20.1975V28.0525C49 28.2043 48.8424 28.2992 48.7163 28.2233L42.1905 24.2958Z" fill="url(#paint1_linear)"/>
<path fill-rule="evenodd" clip-rule="evenodd" d="M42.1905 37.0458C42.0644 36.9699 42.0644 36.7801 42.1905 36.7042L48.7163 32.7767C48.8424 32.7008 49 32.7957 49 32.9475V40.8025C49 40.9543 48.8424 41.0492 48.7163 40.9733L42.1905 37.0458Z" fill="url(#paint2_linear)"/>
<defs>
<filter id="filter0_d" x="0" y="0" width="80" height="80" filterUnits="userSpaceOnUse" color-interpolation-filters="sRGB">
<feFlood flood-opacity="0" result="BackgroundImageFix"/>
<feColorMatrix in="SourceAlpha" type="matrix" values="0 0 0 0 0 0 0 0 0 0 0 0 0 0 0 0 0 0 127 0"/>
<feOffset dy="10"/>
<feGaussianBlur stdDeviation="10"/>
<feColorMatrix type="matrix" values="0 0 0 0 0.133333 0 0 0 0 0.0627451 0 0 0 0 0.25098 0 0 0 1 0"/>
<feBlend mode="normal" in2="BackgroundImageFix" result="effect1_dropShadow"/>
<feBlend mode="normal" in="SourceGraphic" in2="effect1_dropShadow" result="shape"/>
</filter>
<linearGradient id="paint0_linear" x1="49" y1="41" x2="30.6322" y2="20.9673" gradientUnits="userSpaceOnUse">
<stop stop-color="#662EFF"/>
<stop offset="1" stop-color="#BD00FF"/>
</linearGradient>
<linearGradient id="paint1_linear" x1="49" y1="41" x2="30.6322" y2="20.9673" gradientUnits="userSpaceOnUse">
<stop stop-color="#662EFF"/>
<stop offset="1" stop-color="#BD00FF"/>
</linearGradient>
<linearGradient id="paint2_linear" x1="49" y1="41" x2="30.6322" y2="20.9673" gradientUnits="userSpaceOnUse">
<stop stop-color="#662EFF"/>
<stop offset="1" stop-color="#BD00FF"/>
</linearGradient>
</defs>
</svg>
